# xmcd
#
# Track frame offsets:
#	150
#	16356
#	32774
#	49535
#	65262
#	87209
#	103152
#	119703
#	134346
#	150646
#	172539
#	187252
#	205336
#	220484
#
# Disc length: 3211 seconds
#
# Revision: 1
# Processed by: cddbd v1.5.2PL0 Copyright (c) Steve Scherf et al.
# Submitted via: audiograbber 1.82.01
#
DISCID=c40c890e
DTITLE=Ginette Reno - La Musique En Moi
DYEAR=2011
DGENRE=Balade
TTITLE0=Ginette Reno - La Musique En Moi
TTITLE1=Ginette Reno - La Même Adresse
TTITLE2=Ginette Reno - Papa Est En Amérique
TTITLE3=Ginette Reno - Tu Me Manques
TTITLE4=Ginette Reno - Ne M'parlez Plus De Lui
TTITLE5=Ginette Reno - Fatiguée
TTITLE6=Ginette Reno - La Paix
TTITLE7=Ginette Reno - Perdu Dans Montréal
TTITLE8=Ginette Reno - Là Où Ça Fait Mal
TTITLE9=Ginette Reno - Je Suis Guérie
TTITLE10=Ginette Reno - Voir Grandir Mes Enfants
TTITLE11=Ginette Reno - Folle
TTITLE12=Ginette Reno - Une Rose, Un Baiser et C'est Tout
TTITLE13=Ginette Reno - La Merveille
EXTD=Musique en moi  
EXTT0=Musique enbiant Balade
EXTT1=
EXTT2=
EXTT3=
EXTT4=
EXTT5=
EXTT6=
EXTT7=
EXTT8=
EXTT9=
EXTT10=
EXTT11=
EXTT12=
EXTT13=
PLAYORDER=
